<?xml version="1.0" standalone="no"?>
<!DOCTYPE svg PUBLIC "-//W3C//DTD SVG 20010904//EN"
 "http://www.w3.org/TR/2001/REC-SVG-20010904/DTD/svg10.dtd">
<svg version="1.0" xmlns="http://www.w3.org/2000/svg"
 width="300.000000pt" height="33.000000pt" viewBox="0 0 300.000000 33.000000"
 preserveAspectRatio="xMidYMid meet">
<metadata>
Created by potrace 1.10, written by Peter Selinger 2001-2011
</metadata>
<g transform="translate(0.000000,33.000000) scale(0.100000,-0.100000)"
fill="#000000" stroke="none">
<path d="M1178 316 c-9 -6 -18 -23 -20 -36 -1 -14 -10 -25 -18 -26 -74 -3
-151 -109 -109 -151 14 -14 36 -7 67 20 31 29 28 43 -4 18 -35 -28 -44 -26
-44 7 0 35 43 82 75 82 24 0 25 -11 6 -45 -10 -18 -8 -75 4 -85 12 -10 85 35
85 52 0 14 -16 9 -35 -12 -42 -47 -46 -11 -10 97 28 83 29 98 3 79z"/>
<path d="M2297 313 c-8 -10 -21 -39 -27 -65 -9 -36 -17 -48 -36 -52 -13 -4
-24 -11 -24 -17 0 -6 8 -6 21 2 21 11 22 10 16 -29 -11 -64 30 -79 73 -28 10
13 10 16 -4 16 -9 0 -16 -4 -16 -10 0 -5 -7 -10 -16 -10 -36 0 10 108 47 110
4 0 13 14 22 32 26 55 -17 94 -56 51z m43 -17 c0 -14 -11 -38 -26 -53 l-25
-28 7 35 c12 65 44 98 44 46z"/>
<path d="M2460 298 c-11 -18 -20 -42 -20 -53 0 -27 -11 -41 -37 -49 -13 -4
-23 -12 -23 -17 0 -6 8 -5 21 1 27 15 31 10 19 -30 -7 -23 -6 -38 1 -47 15
-18 22 -17 53 8 31 24 29 37 -3 18 -27 -17 -32 -10 -24 34 4 28 13 42 35 53
38 20 66 77 48 99 -20 24 -49 18 -70 -17z m52 -9 c-1 -13 -14 -35 -28 -49
l-26 -25 6 27 c12 52 26 80 39 75 6 -2 11 -15 9 -28z"/>
<path d="M145 302 c-51 -25 -77 -54 -73 -84 8 -59 108 -13 108 49 l-1 28 -14
-32 c-18 -41 -63 -73 -75 -52 -21 33 71 99 139 99 l34 0 -32 -32 c-17 -18 -48
-62 -69 -98 -34 -60 -40 -65 -75 -68 -40 -3 -47 4 -19 24 14 10 15 15 4 25
-10 11 -15 10 -28 -3 -21 -20 -12 -45 20 -59 51 -24 124 30 151 110 9 27 27
59 41 72 l26 24 -4 -35 c-2 -25 -10 -38 -25 -45 -27 -11 -29 -21 -8 -29 22 -8
18 -31 -9 -63 -27 -31 -47 -24 -28 10 12 20 11 19 -8 -2 -18 -21 -19 -26 -7
-39 13 -12 19 -12 45 2 48 25 64 63 37 89 -13 13 -12 17 10 31 28 19 33 57 10
76 -27 22 -105 23 -150 2z"/>
<path d="M1849 311 c-47 -15 -69 -31 -85 -62 -12 -24 -13 -34 -3 -45 28 -34
90 0 104 59 10 38 -2 34 -19 -7 -16 -39 -52 -64 -69 -47 -30 30 42 87 124 98
45 6 49 -1 16 -27 -13 -10 -36 -42 -51 -72 -40 -73 -64 -98 -98 -98 -32 0 -35
7 -11 25 17 13 10 35 -12 35 -17 0 -28 -31 -19 -53 3 -9 15 -19 26 -23 51 -16
119 33 142 104 9 26 27 61 40 77 22 27 25 28 32 12 9 -24 -15 -67 -38 -67 -10
0 -18 -4 -18 -10 0 -5 7 -10 15 -10 20 0 19 -39 -1 -68 -8 -12 -22 -22 -30
-22 -18 0 -18 9 3 32 9 10 11 18 5 18 -15 0 -35 -38 -28 -56 8 -21 31 -17 65
12 32 27 40 61 19 82 -9 9 -5 16 15 32 30 23 35 51 13 69 -18 15 -104 23 -137
12z"/>
<path d="M2924 292 c-6 -4 -14 -17 -18 -29 -5 -16 -16 -23 -34 -24 -27 -2 -27
-2 -2 -6 l24 -5 -34 -28 c-19 -16 -32 -32 -27 -36 4 -4 19 3 34 17 23 21 25
22 19 4 -17 -45 -18 -82 -3 -88 15 -6 87 39 87 55 0 14 -16 9 -35 -12 -35 -39
-44 -18 -24 53 9 32 14 37 37 35 30 -2 52 8 52 23 0 6 -7 6 -19 -1 -29 -15
-54 -13 -47 5 3 8 9 22 12 30 7 16 -4 19 -22 7z"/>
<path d="M705 260 c-4 -6 -14 -8 -23 -6 -24 8 -78 -28 -102 -66 -44 -72 2
-118 61 -62 l29 28 0 -25 c0 -14 3 -28 6 -32 12 -12 59 21 103 72 24 28 47 51
51 51 5 0 4 -17 -1 -37 -22 -89 -22 -96 -10 -89 6 4 21 27 32 51 22 46 65 93
76 81 4 -3 2 -27 -5 -51 -7 -25 -12 -51 -12 -59 0 -26 29 -25 60 0 37 32 40
53 3 24 -34 -26 -40 -14 -23 45 23 84 -2 97 -64 33 -22 -24 -37 -35 -33 -25
16 43 19 67 7 67 -6 0 -43 -32 -82 -71 -81 -83 -100 -82 -73 3 9 29 19 59 21
66 7 15 -12 16 -21 2z m-15 -35 c0 -32 -73 -111 -91 -99 -30 18 25 104 67 104
13 0 24 -2 24 -5z"/>
<path d="M2156 261 c-4 -5 -19 -9 -35 -9 -57 2 -131 -83 -116 -132 9 -28 50
-26 80 5 l25 24 0 -24 c0 -18 6 -25 19 -25 21 0 71 36 71 51 0 6 -12 1 -27
-11 -39 -30 -46 -12 -24 60 19 60 21 85 7 61z m-26 -46 c0 -9 -18 -35 -39 -58
-30 -32 -43 -39 -51 -31 -25 25 26 104 66 104 15 0 24 -6 24 -15z"/>
<path d="M355 219 c-25 -23 -45 -46 -45 -52 0 -6 16 4 35 23 39 38 43 30 21
-43 -12 -41 -12 -47 0 -47 17 0 36 42 38 85 1 17 6 40 10 53 11 34 -9 27 -59
-19z"/>
<path d="M440 229 c-38 -42 -40 -62 -2 -26 25 24 30 25 43 12 13 -14 18 -12
44 15 16 16 24 30 18 30 -6 0 -16 -7 -23 -15 -12 -14 -15 -14 -31 1 -17 15
-20 14 -49 -17z"/>
<path d="M1405 219 c-25 -23 -45 -46 -45 -52 0 -6 16 4 35 23 39 38 43 30 21
-43 -12 -41 -12 -47 0 -47 17 0 36 42 38 85 1 17 6 40 10 53 11 34 -9 27 -59
-19z"/>
<path d="M1496 230 c-20 -18 -36 -37 -36 -43 0 -6 13 2 30 18 16 16 33 26 36
22 3 -3 0 -28 -6 -55 -17 -64 -9 -87 22 -71 31 15 58 40 58 51 0 5 -12 0 -27
-12 -36 -28 -45 -14 -28 45 13 42 13 51 1 63 -11 12 -19 9 -50 -18z"/>
<path d="M2603 228 c-59 -51 -66 -59 -59 -65 3 -4 23 9 43 28 34 32 35 33 29
9 -17 -69 -18 -97 -2 -103 17 -7 76 37 76 56 0 6 -10 1 -23 -11 -13 -12 -26
-22 -30 -22 -11 0 -8 42 8 93 8 26 10 47 5 47 -5 0 -26 -15 -47 -32z"/>
<path d="M2739 181 c-56 -57 -21 -110 48 -74 20 11 39 25 41 33 3 8 -7 5 -26
-8 -35 -26 -62 -28 -62 -7 0 8 9 15 19 15 29 0 65 34 58 53 -10 26 -45 20 -78
-12z m61 5 c0 -17 -26 -39 -40 -34 -6 2 -4 12 5 26 18 25 35 29 35 8z"/>
<path d="M1259 171 c-34 -35 -35 -42 -8 -66 18 -18 22 -18 46 -3 33 20 58 61
50 82 -10 26 -55 19 -88 -13z m71 1 c0 -27 -29 -62 -51 -62 -17 0 -18 3 -8 23
27 51 59 73 59 39z"/>
</g>
</svg>
